<?xml version="1.0" encoding="utf-8"?>
<!-- Generator: Adobe Illustrator 27.5.0, SVG Export Plug-In . SVG Version: 6.00 Build 0)  -->
<svg version="1.1" xmlns="http://www.w3.org/2000/svg" xmlns:xlink="http://www.w3.org/1999/xlink" x="0px" y="0px"
	 viewBox="0 0 500 500" style="enable-background:new 0 0 500 500;" xml:space="preserve">
<g id="BACKGROUND">
	<g>
		<rect style="fill:#FFFFFF;" width="500" height="500"/>
	</g>
</g>
<g id="OBJECTS">
	<g>
		<path style="fill:#FF9703;" d="M148.061,225.955c0,0,136.426-36.737,190.006-15.855c53.58,20.882-63.861,55.685-84.835,56.845
			c0,0,64.123-22.429,44.312-37.51C277.733,214.354,148.061,225.955,148.061,225.955z"/>
		<path style="fill:#1D2580;" d="M257.802,135.431l10.414,0.714v-3.911l-10.414-0.714V135.431z M283.237,133.264l-10.415-0.714
			v3.911l10.415,0.714V133.264z M256.012,96.346c11.545-2.621,7.705,3.652,16.345,3.144c0,0,8.576-3.273,15.487,0.444
			c0,0-1.598-6.848-7.473-7.242c-4.387-0.294-6.104,3.077-12.155,0c-6.051-3.077-5.666-2.049-12.781-0.063
			c-7.116,1.986-9.423-1.884-9.423-1.884S248.302,98.096,256.012,96.346z M272.823,143.144l10.415,0.714v-3.911l-10.415-0.714
			V143.144z M269.166,104.251v18.851l22.411,1.536v-19.961c0,0-2.835-3.696-10.071-4.192
			C274.268,99.99,269.166,104.251,269.166,104.251z M287.844,137.49l10.415,0.714v-3.911l-10.415-0.714V137.49z M313.279,135.323
			l-10.414-0.714v3.911l10.414,0.714V135.323z M219.839,178.604c17.698-11.049,20.387-15.358,32.621-22.382V123.04l-11.887,10.532
			l-7.392-0.507v3.911l3.295,0.226l-16.637,14.74V178.604z M212.459,127.535l-19.277,19.063v46.839
			c4.342-1.893,10.841-5.221,19.277-10.951V127.535z M339.492,172.366c0-16.419-5.797-30.82-5.797-30.82
			c-8.387-0.851-20.918-1.232-35.436,1.371v-1.94l-10.415-0.714v3.911l3.342,0.229c-14.865,3.561-31.322,10.398-47.32,22.934
			c-37.169,29.125-74.251,36.578-74.251,36.578l7.778,11.129c29.976-6.55,76.802-15.186,115.303-15.186
			c11.477,0,21.606,0.773,30.322,2.294c-1.92-4.125-4.579-6.939-1.833-12.431C328.66,174.765,339.492,172.366,339.492,172.366z
			 M228.574,132.749l-10.415-0.714v3.911l10.415,0.714V132.749z M223.543,107.412c7.47,0.015,4.224,3.332,9.61,4.238
			c0,0,5.736-0.805,9.463,2.455c0,0-0.018-4.437-3.576-5.507c-2.657-0.799-4.188,1.032-7.476-1.713
			c-3.288-2.745-3.196-2.059-7.853-1.84c-4.656,0.219-5.53-2.487-5.53-2.487S218.554,107.402,223.543,107.412z M224.413,117.165
			v10.37l20.008,1.371v-11.361c0,0-2.53-3.3-8.991-3.743C228.968,113.361,224.413,117.165,224.413,117.165z"/>
	</g>
</g>
<g id="TEXTS">
	<g>
		<g>
			<g>
				<g>
					
						<text transform="matrix(1 0 0 1 88.1111 316.9074)" style="fill:#1D2580; font-family:'RacingSansOne-Regular'; font-size:62.0513px;">Legendary</text>
				</g>
			</g>
			<g>
				<g>
					
						<text transform="matrix(1 0 0 1 155.4656 372.4172)" style="fill:#FF9703; font-family:'RacingSansOne-Regular'; font-size:62.0513px;">Cruise</text>
				</g>
			</g>
		</g>
		
			<text transform="matrix(1 0 0 1 175.5623 404.6402)" style="fill:#6E6E6E; font-family:'Montserrat-Medium'; font-size:17.5482px;">Tagline goes here.</text>
	</g>
</g>
</svg>
